<svg width="458" height="458" viewBox="0 0 458 458" fill="none" xmlns="http://www.w3.org/2000/svg">
<path fill-rule="evenodd" clip-rule="evenodd" d="M229.142 57.2143C134.347 57.2143 57.4995 134.062 57.4995 228.857C57.4995 323.653 134.347 400.5 229.142 400.5C323.938 400.5 400.785 323.653 400.785 228.857C400.785 134.062 323.938 57.2143 229.142 57.2143ZM23.1709 228.857C23.1709 115.102 115.388 22.8857 229.142 22.8857C342.897 22.8857 435.114 115.102 435.114 228.857C435.114 342.612 342.897 434.829 229.142 434.829C115.388 434.829 23.1709 342.612 23.1709 228.857ZM142.627 142.342C149.33 135.639 160.198 135.639 166.901 142.342L229.142 204.583L291.384 142.342C298.087 135.639 308.955 135.639 315.658 142.342C322.361 149.045 322.361 159.913 315.658 166.616L253.416 228.857L315.658 291.099C322.361 297.802 322.361 308.67 315.658 315.373C308.955 322.076 298.087 322.076 291.384 315.373L229.142 253.131L166.901 315.373C160.198 322.076 149.33 322.076 142.627 315.373C135.924 308.67 135.924 297.802 142.627 291.099L204.868 228.857L142.627 166.616C135.924 159.913 135.924 149.045 142.627 142.342Z" fill="white"/>
</svg>
