<svg width="657" height="657" viewBox="0 0 657 657" fill="none" xmlns="http://www.w3.org/2000/svg">
<path d="M466.231 103.846C469.086 89.8793 489.042 89.8792 491.896 103.846C498.201 134.693 522.308 158.799 553.155 165.104C567.121 167.959 567.121 187.915 553.155 190.769C522.308 197.074 498.201 221.181 491.896 252.028C489.042 265.994 469.086 265.994 466.231 252.028C459.926 221.181 435.82 197.074 404.973 190.769C391.006 187.915 391.006 167.959 404.973 165.104C435.82 158.799 459.926 134.693 466.231 103.846Z" fill="#01AAE3"/>
<path d="M567.177 23.9823C568.89 15.6023 580.863 15.6023 582.576 23.9823C586.359 42.4904 600.823 56.9543 619.331 60.7372C627.711 62.45 627.711 74.4235 619.331 76.1363C600.823 79.9192 586.359 94.3832 582.576 112.891C580.863 121.271 568.89 121.271 567.177 112.891C563.394 94.3831 548.93 79.9192 530.422 76.1363C522.042 74.4235 522.042 62.45 530.422 60.7372C548.93 56.9543 563.394 42.4904 567.177 23.9823Z" fill="#01AAE3"/>
<path d="M387.592 116.823C397.689 121.984 410.057 117.984 415.219 107.887C420.38 97.7909 416.379 85.4222 406.283 80.2609L396.938 98.542L387.592 116.823ZM493.151 320.4C496.237 309.489 489.894 298.142 478.983 295.056C468.072 291.97 456.725 298.314 453.639 309.225L473.395 314.812L493.151 320.4ZM138.639 383.418C131.172 374.884 118.201 374.019 109.668 381.486C101.134 388.953 100.269 401.924 107.736 410.457L123.188 396.938L138.639 383.418ZM146.894 424.03L162.345 410.51L162.345 410.51L146.894 424.03ZM510.106 424.03L525.558 437.55L525.558 437.55L510.106 424.03ZM549.264 410.457C556.731 401.924 555.866 388.953 547.332 381.486C538.799 374.019 525.828 374.884 518.361 383.418L533.812 396.938L549.264 410.457ZM349.031 520.125C349.031 508.786 339.839 499.594 328.5 499.594C317.161 499.594 307.969 508.786 307.969 520.125H328.5H349.031ZM307.969 588.562C307.969 599.902 317.161 609.094 328.5 609.094C339.839 609.094 349.031 599.902 349.031 588.562H328.5H307.969ZM273.75 581.719C262.411 581.719 253.219 590.911 253.219 602.25C253.219 613.589 262.411 622.781 273.75 622.781V602.25V581.719ZM383.25 622.781C394.589 622.781 403.781 613.589 403.781 602.25C403.781 590.911 394.589 581.719 383.25 581.719V602.25V622.781ZM177.938 273.75H198.469V232.688H177.938H157.406V273.75H177.938ZM328.5 424.312V403.781C256.686 403.781 198.469 345.564 198.469 273.75H177.938H157.406C157.406 368.242 234.008 444.844 328.5 444.844V424.312ZM328.5 82.125V61.5938C234.008 61.5938 157.406 138.195 157.406 232.688H177.938H198.469C198.469 160.873 256.686 102.656 328.5 102.656V82.125ZM328.5 82.125V102.656C349.82 102.656 369.885 107.771 387.592 116.823L396.938 98.542L406.283 80.2609C382.924 68.3199 356.467 61.5938 328.5 61.5938V82.125ZM473.395 314.812L453.639 309.225C438.199 363.813 387.99 403.781 328.5 403.781V424.312V444.844C406.846 444.844 472.843 392.202 493.151 320.4L473.395 314.812ZM123.188 396.938L107.736 410.457L131.442 437.55L146.894 424.03L162.345 410.51L138.639 383.418L123.188 396.938ZM510.106 424.03L525.558 437.55L549.264 410.457L533.812 396.938L518.361 383.418L494.655 410.51L510.106 424.03ZM328.5 506.438V526.969C404.006 526.969 475.837 494.374 525.558 437.55L510.106 424.03L494.655 410.51C452.731 458.423 392.165 485.906 328.5 485.906V506.438ZM146.894 424.03L131.442 437.55C181.163 494.374 252.994 526.969 328.5 526.969V506.438V485.906C264.835 485.906 204.269 458.423 162.345 410.51L146.894 424.03ZM328.5 520.125H307.969V588.562H328.5H349.031V520.125H328.5ZM273.75 602.25V622.781H383.25V602.25V581.719H273.75V602.25Z" fill="#4361EE"/>
</svg>
