<svg width="458" height="458" viewBox="0 0 458 458" fill="none" xmlns="http://www.w3.org/2000/svg">
<path d="M40.194 202.018C32.0423 259.377 50.0263 319.735 94.1461 363.855C160.218 429.927 262.709 437.385 337.002 386.228C345.26 380.542 349.388 377.699 351.556 372.584C353.267 368.548 353.403 362.624 351.88 358.513C349.949 353.304 345.293 349.772 335.981 342.708L324.359 333.892M127.86 121.115L120.768 115.441C111.83 108.291 107.361 104.716 105.549 99.5648C104.116 95.493 104.311 89.6816 106.013 85.7149C108.166 80.6967 112.197 77.8924 120.26 72.2839C178.05 32.0851 253.12 27.5332 314.823 58.6282M399.373 143.178C421.826 187.733 425.693 239.258 410.972 286.214" stroke="white" stroke-width="30.5143" stroke-linecap="round"/>
<path d="M356.993 64.673C358.186 58.8349 366.528 58.8349 367.721 64.673C370.357 77.5672 380.433 87.6438 393.327 90.2792C399.166 91.4725 399.166 99.8141 393.327 101.007C380.433 103.643 370.357 113.719 367.721 126.614C366.528 132.452 358.186 132.452 356.993 126.614C354.358 113.719 344.281 103.643 331.387 101.007C325.549 99.8141 325.549 91.4725 331.387 90.2792C344.281 87.6438 354.358 77.5672 356.993 64.673Z" fill="white"/>
<path d="M228.436 165.015C228.562 164.4 229.441 164.4 229.567 165.015C236.094 196.95 261.051 221.907 292.986 228.434C293.601 228.56 293.601 229.439 292.986 229.565C261.051 236.092 236.094 261.049 229.567 292.984C229.441 293.599 228.562 293.599 228.436 292.984C221.909 261.049 196.952 236.092 165.018 229.565C164.402 229.439 164.402 228.56 165.018 228.434C196.952 221.907 221.909 196.95 228.436 165.015Z" stroke="white" stroke-width="30.5143"/>
</svg>
